<?xml version="1.0" encoding="UTF-8"?>
<svg id="Layer_2" data-name="Layer 2" xmlns="http://www.w3.org/2000/svg" viewBox="0 0 795.06 178.9">
  <g id="Layer_1-2" data-name="Layer 1">
    <g>
      <path d="m284.6,45.65c-10.38,0-20.02,7.15-28.02,12.55l-.02-10.44h-22.1v95.37h22.37l-.13-47.34h0c0-15.21,12.69-27.54,27.9-27.54,4.62,0,8.97,1.14,12.79,3.15v-24.11c-4.08-1.07-8.37-1.65-12.79-1.65Z"/>
      <polygon points="395.76 47.77 369.5 47.77 335.23 86.08 333.67 86.08 333.67 15.98 311.2 15.98 311.2 143.14 333.67 143.14 333.67 111.08 341.85 102.32 371.05 143.14 397.93 143.14 358.79 88.94 395.76 47.77"/>
      <polygon points="491.73 16.22 473.37 0 390.83 89.28 430.43 143.14 460.5 143.14 421.78 89.79 491.73 16.22"/>
      <path d="m169.69,46.53c-27.17,0-49.27,22.1-49.27,49.27s22.1,49.27,49.27,49.27c10.83,0,20.39-5.88,27.54-11.12v10.5h21.73v-48.64c0-27.17-22.1-49.27-49.27-49.27Zm27.54,49.27c0,15.18-12.35,27.54-27.54,27.54s-27.54-12.35-27.54-27.54,12.35-27.54,27.54-27.54,27.54,12.35,27.54,27.54Z"/>
      <path d="m629,46.53c-27.17,0-49.27,22.1-49.27,49.27s22.1,49.27,49.27,49.27c10.83,0,20.39-5.88,27.54-11.12v10.5h21.73v-48.64c0-27.17-22.1-49.27-49.27-49.27Zm27.54,49.27c0,15.18-12.35,27.54-27.54,27.54s-27.54-12.35-27.54-27.54,12.35-27.54,27.54-27.54,27.54,12.35,27.54,27.54Z"/>
      <path d="m44.66,15.98H0v127.16h44.66c35.06,0,63.58-28.52,63.58-63.58S79.72,15.98,44.66,15.98Zm41.18,63.58c0,22.7-18.47,41.18-41.18,41.18h-21.94V38.38h21.94c22.7,0,41.18,18.47,41.18,41.18Z"/>
      <path d="m744.92,45.65c-10.38,0-20.02,6.15-28.02,11.55l-.02-9.44h-22.1v131.13h22.48l-.12-44.36c7.95,5.3,17.51,11.4,27.78,11.4,27.69,0,50.14-22.45,50.14-50.14s-22.45-50.14-50.14-50.14Zm0,77.68c-15.21,0-27.54-12.33-27.54-27.54s12.33-27.54,27.54-27.54,27.54,12.33,27.54,27.54-12.33,27.54-27.54,27.54Z"/>
      <path d="m565.13,86.45c-4.38-23.23-24.76-40.8-49.26-40.8-27.69,0-50.14,22.45-50.14,50.14s22.45,50.14,50.14,50.14c19.56,0,36.49-11.21,44.75-27.54l-25.55-2.87c-4.96,4.83-11.73,7.81-19.2,7.81-13.22,0-24.25-9.31-26.92-21.73h76.72c.22-1.91.34-3.84.34-5.81,0-3.19-.31-6.32-.88-9.34Zm-75.17,0c3.83-10.61,13.98-18.19,25.91-18.19s22.08,7.58,25.91,18.19h-51.81Z"/>
    </g>
  </g>
</svg>